<mxfile host="Electron" agent="Mozilla/5.0 (Windows NT 10.0; Win64; x64) AppleWebKit/537.36 (KHTML, like Gecko) draw.io/22.0.3 Chrome/114.0.5735.289 Electron/25.8.4 Safari/537.36" modified="2024-11-26T17:07:46.343Z" etag="E1YSvHg7CIah3PD-l5Cs" version="22.0.3" type="device">
  <diagram name="Page-1" id="5f0bae14-7c28-e335-631c-24af17079c00">
    <mxGraphModel dx="1114" dy="709" grid="1" gridSize="10" guides="1" tooltips="1" connect="1" arrows="1" fold="1" page="1" pageScale="1" pageWidth="1100" pageHeight="850" background="none" math="0" shadow="0">
      <root>
        <mxCell id="0" />
        <mxCell id="1" parent="0" />
        <mxCell id="rrHo5r-WzOikPcS9EhRm-3" value="&lt;p style=&quot;margin:0px;margin-top:6px;text-align:center;&quot;&gt;&lt;b&gt;WelcomePage.jsp&lt;/b&gt;&lt;/p&gt;" style="align=left;overflow=fill;html=1;dropTarget=0;whiteSpace=wrap;" parent="1" vertex="1">
          <mxGeometry x="436" y="207" width="170" height="40" as="geometry" />
        </mxCell>
        <mxCell id="rrHo5r-WzOikPcS9EhRm-4" value="" style="shape=component;jettyWidth=8;jettyHeight=4;" parent="rrHo5r-WzOikPcS9EhRm-3" vertex="1">
          <mxGeometry x="1" width="20" height="20" relative="1" as="geometry">
            <mxPoint x="-24" y="4" as="offset" />
          </mxGeometry>
        </mxCell>
        <mxCell id="rrHo5r-WzOikPcS9EhRm-7" value="&lt;p style=&quot;margin:0px;margin-top:6px;text-align:center;&quot;&gt;&lt;b&gt;PreferencesServlet&lt;/b&gt;&lt;/p&gt;" style="align=left;overflow=fill;html=1;dropTarget=0;whiteSpace=wrap;" parent="1" vertex="1">
          <mxGeometry x="710" y="366" width="185" height="33" as="geometry" />
        </mxCell>
        <mxCell id="rrHo5r-WzOikPcS9EhRm-8" value="" style="shape=component;jettyWidth=8;jettyHeight=4;" parent="rrHo5r-WzOikPcS9EhRm-7" vertex="1">
          <mxGeometry x="1" width="20" height="20" relative="1" as="geometry">
            <mxPoint x="-24" y="4" as="offset" />
          </mxGeometry>
        </mxCell>
        <mxCell id="rrHo5r-WzOikPcS9EhRm-12" value="&lt;p style=&quot;margin:0px;margin-top:6px;text-align:center;&quot;&gt;&lt;b style=&quot;background-color: initial;&quot;&gt;SelectionPage.jsp&lt;/b&gt;&lt;/p&gt;" style="align=left;overflow=fill;html=1;dropTarget=0;whiteSpace=wrap;" parent="1" vertex="1">
          <mxGeometry x="431" y="369" width="180" height="30" as="geometry" />
        </mxCell>
        <mxCell id="rrHo5r-WzOikPcS9EhRm-13" value="" style="shape=component;jettyWidth=8;jettyHeight=4;" parent="rrHo5r-WzOikPcS9EhRm-12" vertex="1">
          <mxGeometry x="1" width="20" height="20" relative="1" as="geometry">
            <mxPoint x="-24" y="4" as="offset" />
          </mxGeometry>
        </mxCell>
        <mxCell id="rrHo5r-WzOikPcS9EhRm-16" value="&lt;p style=&quot;margin:0px;margin-top:6px;text-align:center;&quot;&gt;&lt;b&gt;ShowScheduleDay.jsp&lt;/b&gt;&lt;/p&gt;" style="align=left;overflow=fill;html=1;dropTarget=0;whiteSpace=wrap;" parent="1" vertex="1">
          <mxGeometry x="429.5" y="451" width="185" height="34" as="geometry" />
        </mxCell>
        <mxCell id="rrHo5r-WzOikPcS9EhRm-17" value="" style="shape=component;jettyWidth=8;jettyHeight=4;" parent="rrHo5r-WzOikPcS9EhRm-16" vertex="1">
          <mxGeometry x="1" width="20" height="20" relative="1" as="geometry">
            <mxPoint x="-24" y="4" as="offset" />
          </mxGeometry>
        </mxCell>
        <mxCell id="rrHo5r-WzOikPcS9EhRm-21" value="&lt;p style=&quot;margin:0px;margin-top:4px;text-align:center;&quot;&gt;&lt;br&gt;&lt;b&gt;Schedule&lt;/b&gt;&lt;/p&gt;" style="verticalAlign=top;align=left;overflow=fill;fontSize=12;fontFamily=Helvetica;html=1;whiteSpace=wrap;" parent="1" vertex="1">
          <mxGeometry x="1014" y="550" width="110" height="50" as="geometry" />
        </mxCell>
        <mxCell id="rrHo5r-WzOikPcS9EhRm-25" value="Database" style="shape=cylinder3;whiteSpace=wrap;html=1;boundedLbl=1;backgroundOutline=1;size=15;" parent="1" vertex="1">
          <mxGeometry x="1240" y="402" width="60" height="80" as="geometry" />
        </mxCell>
        <mxCell id="rrHo5r-WzOikPcS9EhRm-40" value="&lt;p style=&quot;margin:0px;margin-top:6px;text-align:center;&quot;&gt;&lt;b&gt;SignInServlet&lt;/b&gt;&lt;/p&gt;" style="align=left;overflow=fill;html=1;dropTarget=0;whiteSpace=wrap;" parent="1" vertex="1">
          <mxGeometry x="710" y="292" width="190" height="30" as="geometry" />
        </mxCell>
        <mxCell id="rrHo5r-WzOikPcS9EhRm-41" value="" style="shape=component;jettyWidth=8;jettyHeight=4;" parent="rrHo5r-WzOikPcS9EhRm-40" vertex="1">
          <mxGeometry x="1" width="20" height="20" relative="1" as="geometry">
            <mxPoint x="-24" y="3" as="offset" />
          </mxGeometry>
        </mxCell>
        <mxCell id="rrHo5r-WzOikPcS9EhRm-54" value="" style="endArrow=none;html=1;rounded=0;entryX=0;entryY=0.5;entryDx=0;entryDy=0;exitX=1;exitY=0.5;exitDx=0;exitDy=0;" parent="1" source="rrHo5r-WzOikPcS9EhRm-51" target="rrHo5r-WzOikPcS9EhRm-21" edge="1">
          <mxGeometry width="50" height="50" relative="1" as="geometry">
            <mxPoint x="340" y="683" as="sourcePoint" />
            <mxPoint x="980" y="606" as="targetPoint" />
            <Array as="points" />
          </mxGeometry>
        </mxCell>
        <mxCell id="rrHo5r-WzOikPcS9EhRm-27" value="&lt;p style=&quot;margin: 4px 0px 0px;&quot;&gt;&lt;br&gt;&lt;/p&gt;&lt;p style=&quot;margin: 4px 0px 0px;&quot;&gt;&lt;b&gt;Traveler&lt;/b&gt;&lt;/p&gt;&lt;p style=&quot;margin: 4px 0px 0px;&quot;&gt;&lt;b&gt;&lt;br&gt;&lt;/b&gt;&lt;/p&gt;" style="verticalAlign=top;align=center;overflow=fill;fontSize=12;fontFamily=Helvetica;html=1;whiteSpace=wrap;" parent="1" vertex="1">
          <mxGeometry x="1012" y="282" width="110" height="50" as="geometry" />
        </mxCell>
        <mxCell id="rrHo5r-WzOikPcS9EhRm-67" value="&lt;p style=&quot;margin:0px;margin-top:6px;text-align:center;&quot;&gt;&lt;b&gt;Register.jsp&lt;/b&gt;&lt;/p&gt;" style="align=left;overflow=fill;html=1;dropTarget=0;whiteSpace=wrap;" parent="1" vertex="1">
          <mxGeometry x="430.5" y="292" width="181" height="30" as="geometry" />
        </mxCell>
        <mxCell id="rrHo5r-WzOikPcS9EhRm-68" value="" style="shape=component;jettyWidth=8;jettyHeight=4;" parent="rrHo5r-WzOikPcS9EhRm-67" vertex="1">
          <mxGeometry x="1" width="20" height="20" relative="1" as="geometry">
            <mxPoint x="-24" y="3" as="offset" />
          </mxGeometry>
        </mxCell>
        <mxCell id="rrHo5r-WzOikPcS9EhRm-81" value="" style="ellipse;whiteSpace=wrap;html=1;align=center;aspect=fixed;fillColor=none;strokeColor=none;resizable=0;perimeter=centerPerimeter;rotatable=0;allowArrows=0;points=[];outlineConnect=1;" parent="1" vertex="1">
          <mxGeometry x="747" y="508" width="10" height="10" as="geometry" />
        </mxCell>
        <mxCell id="QPylJCogJ4yJsTdaJuYl-27" value="" style="ellipse;whiteSpace=wrap;html=1;align=center;aspect=fixed;fillColor=none;strokeColor=none;resizable=0;perimeter=centerPerimeter;rotatable=0;allowArrows=0;points=[];outlineConnect=1;" parent="1" vertex="1">
          <mxGeometry x="274" y="409" width="10" height="10" as="geometry" />
        </mxCell>
        <mxCell id="JJwhxfO3wkZIyO4d7TkD-3" value="" style="endArrow=none;html=1;rounded=0;entryX=1;entryY=1;entryDx=0;entryDy=0;" parent="1" target="rrHo5r-WzOikPcS9EhRm-27" edge="1">
          <mxGeometry width="50" height="50" relative="1" as="geometry">
            <mxPoint x="1240" y="450" as="sourcePoint" />
            <mxPoint x="850" y="442" as="targetPoint" />
          </mxGeometry>
        </mxCell>
        <mxCell id="JJwhxfO3wkZIyO4d7TkD-4" value="&lt;p style=&quot;margin:0px;margin-top:4px;text-align:center;&quot;&gt;&lt;b&gt;&lt;br&gt;&lt;/b&gt;&lt;/p&gt;&lt;p style=&quot;margin:0px;margin-top:4px;text-align:center;&quot;&gt;&lt;b&gt;Activity&lt;/b&gt;&lt;/p&gt;" style="verticalAlign=top;align=left;overflow=fill;fontSize=12;fontFamily=Helvetica;html=1;whiteSpace=wrap;" parent="1" vertex="1">
          <mxGeometry x="1013" y="448" width="110" height="50" as="geometry" />
        </mxCell>
        <mxCell id="JJwhxfO3wkZIyO4d7TkD-5" value="" style="endArrow=none;html=1;rounded=0;entryX=1;entryY=0.5;entryDx=0;entryDy=0;" parent="1" target="JJwhxfO3wkZIyO4d7TkD-4" edge="1">
          <mxGeometry width="50" height="50" relative="1" as="geometry">
            <mxPoint x="1240" y="450" as="sourcePoint" />
            <mxPoint x="1170" y="622" as="targetPoint" />
          </mxGeometry>
        </mxCell>
        <mxCell id="rrHo5r-WzOikPcS9EhRm-33" value="&lt;p style=&quot;margin:0px;margin-top:6px;text-align:center;&quot;&gt;&lt;b&gt;ShowOverallSchedule.jsp&lt;/b&gt;&lt;/p&gt;" style="align=left;overflow=fill;html=1;dropTarget=0;whiteSpace=wrap;" parent="1" vertex="1">
          <mxGeometry x="430" y="554" width="195" height="37" as="geometry" />
        </mxCell>
        <mxCell id="rrHo5r-WzOikPcS9EhRm-34" value="" style="shape=component;jettyWidth=8;jettyHeight=4;" parent="rrHo5r-WzOikPcS9EhRm-33" vertex="1">
          <mxGeometry x="1" width="20" height="20" relative="1" as="geometry">
            <mxPoint x="-23" y="4" as="offset" />
          </mxGeometry>
        </mxCell>
        <mxCell id="JJwhxfO3wkZIyO4d7TkD-15" value="" style="endArrow=none;html=1;rounded=0;entryX=0.5;entryY=1;entryDx=0;entryDy=0;exitX=0.472;exitY=0.029;exitDx=0;exitDy=0;exitPerimeter=0;" parent="1" source="rrHo5r-WzOikPcS9EhRm-33" target="rrHo5r-WzOikPcS9EhRm-16" edge="1">
          <mxGeometry width="50" height="50" relative="1" as="geometry">
            <mxPoint x="523" y="532" as="sourcePoint" />
            <mxPoint x="530" y="482" as="targetPoint" />
          </mxGeometry>
        </mxCell>
        <mxCell id="JJwhxfO3wkZIyO4d7TkD-20" value="" style="ellipse;html=1;shape=startState;fillColor=#000000;strokeColor=#000000;" parent="1" vertex="1">
          <mxGeometry x="506" y="132" width="30" height="30" as="geometry" />
        </mxCell>
        <mxCell id="JJwhxfO3wkZIyO4d7TkD-21" value="" style="edgeStyle=orthogonalEdgeStyle;html=1;verticalAlign=bottom;endArrow=open;endSize=8;strokeColor=#000000;rounded=0;entryX=0.5;entryY=0;entryDx=0;entryDy=0;" parent="1" edge="1">
          <mxGeometry relative="1" as="geometry">
            <mxPoint x="520.9999999999998" y="208" as="targetPoint" />
            <mxPoint x="520.9999999999998" y="163" as="sourcePoint" />
          </mxGeometry>
        </mxCell>
        <mxCell id="JJwhxfO3wkZIyO4d7TkD-22" value="start" style="text;html=1;strokeColor=none;fillColor=none;align=center;verticalAlign=middle;whiteSpace=wrap;rounded=0;" parent="1" vertex="1">
          <mxGeometry x="491" y="102" width="60" height="30" as="geometry" />
        </mxCell>
        <mxCell id="JJwhxfO3wkZIyO4d7TkD-28" value="" style="endArrow=none;html=1;rounded=0;exitX=0;exitY=0.5;exitDx=0;exitDy=0;entryX=1;entryY=0.5;entryDx=0;entryDy=0;" parent="1" source="rrHo5r-WzOikPcS9EhRm-40" target="rrHo5r-WzOikPcS9EhRm-67" edge="1">
          <mxGeometry width="50" height="50" relative="1" as="geometry">
            <mxPoint x="983" y="604" as="sourcePoint" />
            <mxPoint x="640" y="387" as="targetPoint" />
            <Array as="points" />
          </mxGeometry>
        </mxCell>
        <mxCell id="JJwhxfO3wkZIyO4d7TkD-29" value="" style="endArrow=none;html=1;rounded=0;entryX=0;entryY=0.25;entryDx=0;entryDy=0;exitX=1;exitY=0.25;exitDx=0;exitDy=0;" parent="1" source="rrHo5r-WzOikPcS9EhRm-17" target="JJwhxfO3wkZIyO4d7TkD-4" edge="1">
          <mxGeometry width="50" height="50" relative="1" as="geometry">
            <mxPoint x="910" y="465" as="sourcePoint" />
            <mxPoint x="980" y="606" as="targetPoint" />
            <Array as="points" />
          </mxGeometry>
        </mxCell>
        <mxCell id="JJwhxfO3wkZIyO4d7TkD-32" value="" style="endArrow=none;html=1;rounded=0;entryX=0;entryY=0.5;entryDx=0;entryDy=0;exitX=1;exitY=0.5;exitDx=0;exitDy=0;" parent="1" source="rrHo5r-WzOikPcS9EhRm-33" target="rrHo5r-WzOikPcS9EhRm-51" edge="1">
          <mxGeometry width="50" height="50" relative="1" as="geometry">
            <mxPoint x="625" y="555" as="sourcePoint" />
            <mxPoint x="965" y="555" as="targetPoint" />
            <Array as="points" />
          </mxGeometry>
        </mxCell>
        <mxCell id="rrHo5r-WzOikPcS9EhRm-51" value="&lt;p style=&quot;margin:0px;margin-top:6px;text-align:center;&quot;&gt;&lt;b&gt;FeedbackServlet&lt;/b&gt;&lt;/p&gt;" style="align=left;overflow=fill;html=1;dropTarget=0;whiteSpace=wrap;" parent="1" vertex="1">
          <mxGeometry x="704" y="558.5" width="210" height="30" as="geometry" />
        </mxCell>
        <mxCell id="rrHo5r-WzOikPcS9EhRm-52" value="" style="shape=component;jettyWidth=8;jettyHeight=4;" parent="rrHo5r-WzOikPcS9EhRm-51" vertex="1">
          <mxGeometry x="1" width="20" height="20" relative="1" as="geometry">
            <mxPoint x="-23" y="4" as="offset" />
          </mxGeometry>
        </mxCell>
        <mxCell id="JJwhxfO3wkZIyO4d7TkD-34" value="" style="endArrow=none;html=1;rounded=0;entryX=1;entryY=0.5;entryDx=0;entryDy=0;" parent="1" source="rrHo5r-WzOikPcS9EhRm-27" target="rrHo5r-WzOikPcS9EhRm-40" edge="1">
          <mxGeometry width="50" height="50" relative="1" as="geometry">
            <mxPoint x="983" y="394" as="sourcePoint" />
            <mxPoint x="906" y="206" as="targetPoint" />
            <Array as="points" />
          </mxGeometry>
        </mxCell>
        <mxCell id="JJwhxfO3wkZIyO4d7TkD-36" value="" style="endArrow=none;html=1;rounded=0;exitX=0.5;exitY=0;exitDx=0;exitDy=0;entryX=0.5;entryY=1;entryDx=0;entryDy=0;" parent="1" edge="1">
          <mxGeometry width="50" height="50" relative="1" as="geometry">
            <mxPoint x="520" y="292" as="sourcePoint" />
            <mxPoint x="520" y="247" as="targetPoint" />
            <Array as="points" />
          </mxGeometry>
        </mxCell>
        <mxCell id="JJwhxfO3wkZIyO4d7TkD-37" value="" style="endArrow=none;html=1;rounded=0;entryX=0.5;entryY=1;entryDx=0;entryDy=0;" parent="1" edge="1">
          <mxGeometry width="50" height="50" relative="1" as="geometry">
            <mxPoint x="520" y="370" as="sourcePoint" />
            <mxPoint x="519.5000000000002" y="322" as="targetPoint" />
            <Array as="points" />
          </mxGeometry>
        </mxCell>
        <mxCell id="JJwhxfO3wkZIyO4d7TkD-38" value="" style="endArrow=none;html=1;rounded=0;exitX=0;exitY=0.5;exitDx=0;exitDy=0;" parent="1" edge="1">
          <mxGeometry width="50" height="50" relative="1" as="geometry">
            <mxPoint x="710" y="385.47" as="sourcePoint" />
            <mxPoint x="610" y="385" as="targetPoint" />
            <Array as="points" />
          </mxGeometry>
        </mxCell>
        <mxCell id="JJwhxfO3wkZIyO4d7TkD-41" value="&lt;p style=&quot;margin:0px;margin-top:6px;text-align:center;&quot;&gt;&lt;b&gt;Profile.jsp&lt;/b&gt;&lt;/p&gt;" style="align=left;overflow=fill;html=1;dropTarget=0;whiteSpace=wrap;" parent="1" vertex="1">
          <mxGeometry x="433" y="630" width="190" height="30" as="geometry" />
        </mxCell>
        <mxCell id="JJwhxfO3wkZIyO4d7TkD-42" value="" style="shape=component;jettyWidth=8;jettyHeight=4;" parent="JJwhxfO3wkZIyO4d7TkD-41" vertex="1">
          <mxGeometry x="1" width="20" height="20" relative="1" as="geometry">
            <mxPoint x="-24" y="4" as="offset" />
          </mxGeometry>
        </mxCell>
        <mxCell id="JJwhxfO3wkZIyO4d7TkD-43" value="&lt;p style=&quot;margin:0px;margin-top:6px;text-align:center;&quot;&gt;&lt;b&gt;EditProfileUserServlet&lt;/b&gt;&lt;/p&gt;" style="align=left;overflow=fill;html=1;dropTarget=0;whiteSpace=wrap;" parent="1" vertex="1">
          <mxGeometry x="722" y="630" width="190" height="30" as="geometry" />
        </mxCell>
        <mxCell id="JJwhxfO3wkZIyO4d7TkD-44" value="" style="shape=component;jettyWidth=8;jettyHeight=4;" parent="JJwhxfO3wkZIyO4d7TkD-43" vertex="1">
          <mxGeometry x="1" width="20" height="20" relative="1" as="geometry">
            <mxPoint x="-24" y="4" as="offset" />
          </mxGeometry>
        </mxCell>
        <mxCell id="JJwhxfO3wkZIyO4d7TkD-45" value="" style="endArrow=none;html=1;rounded=0;entryX=0;entryY=0.5;entryDx=0;entryDy=0;exitX=1;exitY=0.5;exitDx=0;exitDy=0;" parent="1" target="JJwhxfO3wkZIyO4d7TkD-43" edge="1" source="JJwhxfO3wkZIyO4d7TkD-41">
          <mxGeometry width="50" height="50" relative="1" as="geometry">
            <mxPoint x="634" y="644.47" as="sourcePoint" />
            <mxPoint x="704" y="644.47" as="targetPoint" />
            <Array as="points" />
          </mxGeometry>
        </mxCell>
        <mxCell id="JJwhxfO3wkZIyO4d7TkD-46" value="" style="endArrow=none;html=1;rounded=0;entryX=1;entryY=0.5;entryDx=0;entryDy=0;exitX=0;exitY=1;exitDx=0;exitDy=0;" parent="1" source="rrHo5r-WzOikPcS9EhRm-27" target="JJwhxfO3wkZIyO4d7TkD-43" edge="1">
          <mxGeometry width="50" height="50" relative="1" as="geometry">
            <mxPoint x="1008" y="317" as="sourcePoint" />
            <mxPoint x="910" y="317" as="targetPoint" />
            <Array as="points" />
          </mxGeometry>
        </mxCell>
        <mxCell id="CkrG8VeGBjx6NL60ix2R-1" value="&lt;p style=&quot;margin:0px;margin-top:4px;text-align:center;&quot;&gt;&lt;br&gt;&lt;/p&gt;&lt;p style=&quot;margin:0px;margin-top:4px;text-align:center;&quot;&gt;&lt;b&gt;Preferences&lt;/b&gt;&lt;/p&gt;" style="verticalAlign=top;align=left;overflow=fill;fontSize=12;fontFamily=Helvetica;html=1;whiteSpace=wrap;" parent="1" vertex="1">
          <mxGeometry x="1013" y="375" width="110" height="50" as="geometry" />
        </mxCell>
        <mxCell id="CkrG8VeGBjx6NL60ix2R-2" value="" style="endArrow=none;html=1;rounded=0;entryX=1;entryY=0.5;entryDx=0;entryDy=0;" parent="1" target="CkrG8VeGBjx6NL60ix2R-1" edge="1">
          <mxGeometry width="50" height="50" relative="1" as="geometry">
            <mxPoint x="1240" y="450" as="sourcePoint" />
            <mxPoint x="1118" y="342" as="targetPoint" />
          </mxGeometry>
        </mxCell>
        <mxCell id="CkrG8VeGBjx6NL60ix2R-3" value="" style="endArrow=none;html=1;rounded=0;entryX=1;entryY=0.5;entryDx=0;entryDy=0;exitX=0;exitY=0.5;exitDx=0;exitDy=0;" parent="1" source="CkrG8VeGBjx6NL60ix2R-1" target="rrHo5r-WzOikPcS9EhRm-7" edge="1">
          <mxGeometry width="50" height="50" relative="1" as="geometry">
            <mxPoint x="1037" y="439" as="sourcePoint" />
            <mxPoint x="910" y="389" as="targetPoint" />
          </mxGeometry>
        </mxCell>
        <mxCell id="CkrG8VeGBjx6NL60ix2R-6" value="" style="endArrow=none;html=1;rounded=0;exitX=1;exitY=0.5;exitDx=0;exitDy=0;" parent="1" source="rrHo5r-WzOikPcS9EhRm-21" edge="1">
          <mxGeometry width="50" height="50" relative="1" as="geometry">
            <mxPoint x="970" y="530" as="sourcePoint" />
            <mxPoint x="1240" y="450" as="targetPoint" />
          </mxGeometry>
        </mxCell>
        <mxCell id="CkrG8VeGBjx6NL60ix2R-7" value="&lt;p style=&quot;margin:0px;margin-top:6px;text-align:center;&quot;&gt;&lt;b&gt;SaveDayScheduleServlet&lt;/b&gt;&lt;/p&gt;" style="align=left;overflow=fill;html=1;dropTarget=0;whiteSpace=wrap;" parent="1" vertex="1">
          <mxGeometry x="702" y="486" width="210" height="30" as="geometry" />
        </mxCell>
        <mxCell id="CkrG8VeGBjx6NL60ix2R-8" value="" style="shape=component;jettyWidth=8;jettyHeight=4;" parent="CkrG8VeGBjx6NL60ix2R-7" vertex="1">
          <mxGeometry x="1" width="20" height="20" relative="1" as="geometry">
            <mxPoint x="-23" y="4" as="offset" />
          </mxGeometry>
        </mxCell>
        <mxCell id="CkrG8VeGBjx6NL60ix2R-9" value="" style="endArrow=none;html=1;rounded=0;entryX=1;entryY=0.5;entryDx=0;entryDy=0;exitX=0;exitY=0.5;exitDx=0;exitDy=0;" parent="1" source="CkrG8VeGBjx6NL60ix2R-7" target="rrHo5r-WzOikPcS9EhRm-16" edge="1">
          <mxGeometry width="50" height="50" relative="1" as="geometry">
            <mxPoint x="760" y="600" as="sourcePoint" />
            <mxPoint x="810" y="550" as="targetPoint" />
          </mxGeometry>
        </mxCell>
        <mxCell id="CkrG8VeGBjx6NL60ix2R-10" value="" style="endArrow=none;html=1;rounded=0;entryX=0;entryY=0.5;entryDx=0;entryDy=0;exitX=1;exitY=0.5;exitDx=0;exitDy=0;" parent="1" source="CkrG8VeGBjx6NL60ix2R-8" target="rrHo5r-WzOikPcS9EhRm-21" edge="1">
          <mxGeometry width="50" height="50" relative="1" as="geometry">
            <mxPoint x="905" y="564" as="sourcePoint" />
            <mxPoint x="1010" y="585" as="targetPoint" />
            <Array as="points" />
          </mxGeometry>
        </mxCell>
        <mxCell id="CkrG8VeGBjx6NL60ix2R-11" value="&lt;p style=&quot;margin:0px;margin-top:6px;text-align:center;&quot;&gt;&lt;b&gt;SignUpServlet&lt;/b&gt;&lt;/p&gt;" style="align=left;overflow=fill;html=1;dropTarget=0;whiteSpace=wrap;" parent="1" vertex="1">
          <mxGeometry x="710" y="230" width="190" height="30" as="geometry" />
        </mxCell>
        <mxCell id="CkrG8VeGBjx6NL60ix2R-12" value="" style="shape=component;jettyWidth=8;jettyHeight=4;" parent="CkrG8VeGBjx6NL60ix2R-11" vertex="1">
          <mxGeometry x="1" width="20" height="20" relative="1" as="geometry">
            <mxPoint x="-24" y="3" as="offset" />
          </mxGeometry>
        </mxCell>
        <mxCell id="CkrG8VeGBjx6NL60ix2R-13" value="" style="endArrow=none;html=1;rounded=0;exitX=1;exitY=0.5;exitDx=0;exitDy=0;entryX=0;entryY=0.5;entryDx=0;entryDy=0;" parent="1" source="rrHo5r-WzOikPcS9EhRm-67" target="CkrG8VeGBjx6NL60ix2R-11" edge="1">
          <mxGeometry width="50" height="50" relative="1" as="geometry">
            <mxPoint x="720" y="300" as="sourcePoint" />
            <mxPoint x="770" y="250" as="targetPoint" />
          </mxGeometry>
        </mxCell>
        <mxCell id="CkrG8VeGBjx6NL60ix2R-14" value="" style="endArrow=none;html=1;rounded=0;entryX=1;entryY=0.5;entryDx=0;entryDy=0;exitX=0;exitY=0.5;exitDx=0;exitDy=0;" parent="1" source="rrHo5r-WzOikPcS9EhRm-27" target="CkrG8VeGBjx6NL60ix2R-12" edge="1">
          <mxGeometry width="50" height="50" relative="1" as="geometry">
            <mxPoint x="720" y="300" as="sourcePoint" />
            <mxPoint x="770" y="250" as="targetPoint" />
          </mxGeometry>
        </mxCell>
        <mxCell id="rw2ksO2WfS2tUrKaQk8l-1" value="" style="endArrow=none;html=1;rounded=0;entryX=0.5;entryY=1;entryDx=0;entryDy=0;exitX=0.5;exitY=0;exitDx=0;exitDy=0;" edge="1" parent="1" source="JJwhxfO3wkZIyO4d7TkD-41" target="rrHo5r-WzOikPcS9EhRm-33">
          <mxGeometry width="50" height="50" relative="1" as="geometry">
            <mxPoint x="850" y="500" as="sourcePoint" />
            <mxPoint x="900" y="450" as="targetPoint" />
          </mxGeometry>
        </mxCell>
        <mxCell id="rw2ksO2WfS2tUrKaQk8l-3" value="" style="endArrow=none;html=1;rounded=0;entryX=0.5;entryY=1;entryDx=0;entryDy=0;" edge="1" parent="1">
          <mxGeometry width="50" height="50" relative="1" as="geometry">
            <mxPoint x="528" y="700" as="sourcePoint" />
            <mxPoint x="1067" y="599.9999999999999" as="targetPoint" />
            <Array as="points">
              <mxPoint x="1068" y="700" />
            </Array>
          </mxGeometry>
        </mxCell>
        <mxCell id="rw2ksO2WfS2tUrKaQk8l-4" value="" style="endArrow=none;html=1;rounded=0;entryX=0.5;entryY=1;entryDx=0;entryDy=0;" edge="1" parent="1" target="JJwhxfO3wkZIyO4d7TkD-41">
          <mxGeometry width="50" height="50" relative="1" as="geometry">
            <mxPoint x="528" y="700" as="sourcePoint" />
            <mxPoint x="860" y="450" as="targetPoint" />
          </mxGeometry>
        </mxCell>
        <mxCell id="rw2ksO2WfS2tUrKaQk8l-5" value="" style="endArrow=none;html=1;rounded=0;entryX=0.5;entryY=1;entryDx=0;entryDy=0;exitX=0.5;exitY=0;exitDx=0;exitDy=0;" edge="1" parent="1" source="rrHo5r-WzOikPcS9EhRm-16" target="rrHo5r-WzOikPcS9EhRm-12">
          <mxGeometry width="50" height="50" relative="1" as="geometry">
            <mxPoint x="810" y="470" as="sourcePoint" />
            <mxPoint x="860" y="420" as="targetPoint" />
          </mxGeometry>
        </mxCell>
      </root>
    </mxGraphModel>
  </diagram>
</mxfile>
